<?xml version="1.0" encoding="iso-8859-1"?>
<!-- Uploaded to: SVG Repo, www.svgrepo.com, Generator: SVG Repo Mixer Tools -->
<svg height="800px" width="800px" version="1.1" id="Layer_1" xmlns="http://www.w3.org/2000/svg" xmlns:xlink="http://www.w3.org/1999/xlink" 
	 viewBox="0 0 512.001 512.001" xml:space="preserve">
<path style="fill:#E1EAF6;" d="M499.19,336.744c4.566,42.817-6.315,66.396-19.026,79.366c-12.453,12.711-33.098,12.206-45.058-0.962
	c-22.3-24.542-65.082-67.546-91.079-67.546c-36.385,0-88.028,0-88.028,0s-12.911,0-30.375,0c-17.453,0-39.46,0-57.652,0
	c-25.997,0-68.779,43.004-91.079,67.546c-11.96,13.169-32.605,13.674-45.058,0.962c-12.711-12.969-23.591-36.549-19.026-79.366
	c6.901-64.788,28.157-127.358,39.636-157.605c4.472-11.784,12.688-21.713,23.321-28.286c1.796-1.115,3.674-2.136,5.61-3.052
	c20.552-9.707,57.124-22.394,114.8-27.852c17.864-1.69,37.758-2.688,59.824-2.688s41.96,0.998,59.824,2.688
	c57.676,5.458,94.248,18.145,114.8,27.852c1.937,0.915,3.815,1.937,5.61,3.052c10.634,6.573,18.85,16.502,23.321,28.286
	C471.033,209.386,492.289,271.956,499.19,336.744z M425.893,211.944c0-6.479-5.258-11.737-11.737-11.737
	c-6.479,0-11.737,5.258-11.737,11.737c0,6.479,5.258,11.737,11.737,11.737C420.634,223.681,425.893,218.423,425.893,211.944z
	 M403.592,189.644c0-6.479-5.258-11.737-11.737-11.737s-11.737,5.258-11.737,11.737s5.258,11.737,11.737,11.737
	S403.592,196.123,403.592,189.644z M403.592,234.245c0-6.479-5.258-11.737-11.737-11.737s-11.737,5.258-11.737,11.737
	s5.258,11.737,11.737,11.737S403.592,240.724,403.592,234.245z M381.292,211.944c0-6.479-5.258-11.737-11.737-11.737
	s-11.737,5.258-11.737,11.737c0,6.479,5.258,11.737,11.737,11.737S381.292,218.423,381.292,211.944z M350.87,282.366
	c0-18.157-14.706-32.864-32.864-32.864c-18.145,0-32.864,14.706-32.864,32.864c0,18.145,14.718,32.864,32.864,32.864
	C336.163,315.23,350.87,300.512,350.87,282.366z M157.749,211.944c0-18.157-14.718-32.864-32.864-32.864
	c-18.157,0-32.864,14.706-32.864,32.864c0,18.145,14.706,32.864,32.864,32.864C143.031,244.808,157.749,230.09,157.749,211.944z"/>
<path style="fill:#5A5D6F;" d="M436.362,122.696v27.946l-0.129,0.211c-1.796-1.115-3.674-2.136-5.61-3.052
	c-20.552-9.707-57.124-22.394-114.8-27.852l0.035-0.305l25.669-25.692c5.951-5.962,14.507-8.498,22.746-6.737l52.429,11.185
	C428.158,100.842,436.362,110.971,436.362,122.696z"/>
<path style="fill:#9DA6BA;" d="M318.006,249.503c18.157,0,32.864,14.706,32.864,32.864c0,18.145-14.706,32.864-32.864,32.864
	c-18.145,0-32.864-14.718-32.864-32.864C285.142,264.209,299.861,249.503,318.006,249.503z"/>
<path style="fill:#5A5D6F;" d="M196.141,119.645l0.035,0.305c-57.676,5.458-94.248,18.145-114.8,27.852
	c-1.937,0.915-3.815,1.937-5.61,3.052l-0.129-0.211v-27.946c0-11.725,8.204-21.854,19.659-24.296l52.429-11.185
	c8.239-1.761,16.796,0.775,22.746,6.737L196.141,119.645z"/>
<path style="fill:#9DA6BA;" d="M124.885,179.081c18.145,0,32.864,14.706,32.864,32.864c0,18.145-14.718,32.864-32.864,32.864
	c-18.157,0-32.864-14.718-32.864-32.864C92.022,193.787,106.728,179.081,124.885,179.081z"/>
<path d="M414.156,223.681c6.479,0,11.737-5.258,11.737-11.737c0-6.479-5.258-11.737-11.737-11.737
	c-6.479,0-11.737,5.258-11.737,11.737C402.418,218.423,407.677,223.681,414.156,223.681z"/>
<path d="M391.855,201.381c6.479,0,11.737-5.258,11.737-11.737s-5.258-11.737-11.737-11.737s-11.737,5.258-11.737,11.737
	S385.376,201.381,391.855,201.381z"/>
<path d="M391.855,245.982c6.479,0,11.737-5.258,11.737-11.737s-5.258-11.737-11.737-11.737s-11.737,5.258-11.737,11.737
	S385.376,245.982,391.855,245.982z"/>
<path d="M381.292,211.944c0-6.479-5.258-11.737-11.737-11.737s-11.737,5.258-11.737,11.737c0,6.479,5.258,11.737,11.737,11.737
	S381.292,218.423,381.292,211.944z"/>
<path d="M23.45,424.323c8.273,8.445,19.39,12.942,31.215,12.748c11.751-0.222,23.02-5.338,30.916-14.032
	c42.677-46.968,70.544-63.701,82.391-63.701h176.055c11.849,0,39.715,16.735,82.39,63.699c7.898,8.696,19.167,13.812,30.918,14.034
	c0.281,0.005,0.561,0.008,0.84,0.008c11.537-0.001,22.297-4.512,30.372-12.753c19.022-19.408,26.53-49.293,22.314-88.826
	c-3.201-30.048-9.735-62.711-19.42-97.079c-1.757-6.238-8.236-9.874-14.481-8.113c-6.238,1.758-9.871,8.241-8.113,14.481
	c9.327,33.101,15.61,64.458,18.672,93.199c3.387,31.772-2.054,55.944-15.739,69.908c-3.703,3.779-8.634,5.805-14.002,5.704
	c-5.394-0.102-10.36-2.356-13.986-6.346c-43.044-47.371-76.61-71.39-99.766-71.39H167.973c-23.156,0-56.721,24.02-99.767,71.393
	c-3.624,3.988-8.59,6.242-13.985,6.344c-5.338,0.096-10.298-1.926-14.005-5.707c-13.683-13.961-19.124-38.132-15.737-69.907
	c6.711-62.997,27.277-123.955,38.94-154.684c3.522-9.284,10.099-17.263,18.542-22.48c1.407-0.874,2.898-1.685,4.427-2.408
	c19.672-9.291,54.88-21.48,110.892-26.779c18.492-1.749,38.247-2.636,58.718-2.636s40.226,0.887,58.717,2.635
	c56.015,5.302,91.222,17.489,110.892,26.78c1.532,0.723,3.021,1.534,4.453,2.423c8.419,5.203,14.995,13.181,18.518,22.466
	c1.78,4.69,6.239,7.576,10.976,7.576c1.384,0,2.791-0.246,4.162-0.766c6.06-2.299,9.109-9.076,6.81-15.137
	c-4.525-11.924-12.383-22.421-22.428-30.152v-22.127c0-17.154-12.175-32.2-28.948-35.774l-52.425-11.183
	c-12.18-2.604-24.705,1.104-33.502,9.919l-22.078,22.098c-17.535-1.477-36.05-2.23-55.146-2.23s-37.611,0.755-55.146,2.231
	l-22.075-22.098c-8.8-8.814-21.327-12.522-33.501-9.922L92.85,86.921C76.074,90.496,63.9,105.541,63.9,122.695v22.129
	c-10.053,7.739-17.906,18.232-22.428,30.15C29.408,206.76,8.128,269.883,1.138,335.499C-3.078,375.032,4.429,404.916,23.45,424.323z
	 M361.825,98.694l52.432,11.184c6.007,1.281,10.368,6.671,10.368,12.817v9.674c-18.711-7.606-46.028-15.94-83.639-21.27l8.849-8.857
	C352.981,99.089,357.46,97.761,361.825,98.694z M97.745,109.878l52.434-11.185c4.36-0.933,8.838,0.397,11.991,3.553l8.845,8.853
	c-37.61,5.329-64.928,13.663-83.64,21.269v-9.672C87.374,116.549,91.735,111.159,97.745,109.878z"/>
<path d="M466.174,197.021c-6.153,2.041-9.486,8.683-7.445,14.836l0.725,2.192c1.626,4.939,6.216,8.07,11.145,8.07
	c1.216,0,2.454-0.191,3.672-0.593c6.157-2.027,9.506-8.661,7.478-14.818l-0.742-2.243
	C478.967,198.312,472.324,194.98,466.174,197.021z"/>
<path d="M318.006,326.966c24.593,0,44.601-20.008,44.601-44.601s-20.008-44.601-44.601-44.601s-44.601,20.008-44.601,44.601
	S293.413,326.966,318.006,326.966z M318.006,261.239c11.649,0,21.127,9.478,21.127,21.127s-9.478,21.127-21.127,21.127
	c-11.649,0-21.127-9.478-21.127-21.127S306.358,261.239,318.006,261.239z"/>
<path d="M189.334,316.403c6.481,0,11.737-5.256,11.737-11.737v-10.563h10.563c6.481,0,11.737-5.256,11.737-11.737
	s-5.256-11.737-11.737-11.737h-10.563v-10.563c0-6.481-5.256-11.737-11.737-11.737c-6.481,0-11.737,5.256-11.737,11.737v10.563
	h-10.563c-6.481,0-11.737,5.256-11.737,11.737s5.256,11.737,11.737,11.737h10.563v10.563
	C177.597,311.148,182.852,316.403,189.334,316.403z"/>
<path d="M124.885,167.343c-24.593,0-44.601,20.008-44.601,44.601s20.008,44.601,44.601,44.601s44.601-20.008,44.601-44.601
	S149.478,167.343,124.885,167.343z M124.885,233.07c-11.649,0-21.127-9.478-21.127-21.127s9.478-21.127,21.127-21.127
	s21.127,9.478,21.127,21.127S136.534,233.07,124.885,233.07z"/>
<path d="M244.262,196.685c0-6.481-5.256-11.737-11.737-11.737H214.92c-6.481,0-11.737,5.256-11.737,11.737
	c0,6.481,5.256,11.737,11.737,11.737h17.606C239.008,208.422,244.262,203.167,244.262,196.685z"/>
<path d="M308.816,196.685c0-6.481-5.256-11.737-11.737-11.737h-17.605c-6.481,0-11.737,5.256-11.737,11.737
	c0,6.481,5.256,11.737,11.737,11.737h17.605C303.561,208.422,308.816,203.167,308.816,196.685z"/>
</svg>